HIERARCHY
ROOT Hips
{
	OFFSET 0.000000 0.000000 0.000000
	CHANNELS 6 Xposition Yposition Zposition Zrotation Yrotation Xrotation 
	JOINT LHipJoint
	{
		OFFSET 0.000000 0.000000 0.000000
		CHANNELS 3 Zrotation Yrotation Xrotation
		JOINT LeftUpLeg
		{
			OFFSET 1.363060 -1.794630 0.839290
			CHANNELS 3 Zrotation Yrotation Xrotation
			JOINT LeftLeg
			{
				OFFSET 2.448110 -6.726130 0.000000
				CHANNELS 3 Zrotation Yrotation Xrotation
				JOINT LeftFoot
				{
					OFFSET 2.562200 -7.039590 0.000000
					CHANNELS 3 Zrotation Yrotation Xrotation
					JOINT LeftToeBase
					{
						OFFSET 0.157640 -0.433110 2.322550
						CHANNELS 3 Zrotation Yrotation Xrotation
						End Site
						{
							OFFSET 0.000000 0.000000 0.000000
						}
					}
				}
			}
		}
	}
	JOINT RHipJoint
	{
		OFFSET 0.000000 0.000000 0.000000
		CHANNELS 3 Zrotation Yrotation Xrotation
		JOINT RightUpLeg
		{
			OFFSET -1.305520 -1.794630 0.839290
			CHANNELS 3 Zrotation Yrotation Xrotation
			JOINT RightLeg
			{
				OFFSET -2.542530 -6.985550 0.000000
				CHANNELS 3 Zrotation Yrotation Xrotation
				JOINT RightFoot
				{
					OFFSET -2.568260 -7.056230 0.000000
					CHANNELS 3 Zrotation Yrotation Xrotation
					JOINT RightToeBase
					{
						OFFSET -0.164730 -0.452590 2.363150
						CHANNELS 3 Zrotation Yrotation Xrotation
						End Site
						{
							OFFSET 0.000000 0.000000 0.000000
						}
					}
				}
			}
		}
	}
}
MOTION
Frames: 19
Frame Time: 0.008333
1.058614 16.676394 -1.690419 -171.076321 63.945920 -158.972924 -9.229815 0.104558 -0.560957 -21.326253 11.475545 -46.174950 -2.694139 0.704557 24.834807 3.164170 15.017336 -9.432488 0.198800 0.000000 -6.523299 11.050593 -3.112862 -2.946740 -2.982594 -17.093141 -7.557577 0.308674 -2.921274 39.813806 -0.328617 7.166388 20.690242 3.515200 0.000000 -86.783901
1.167046 16.685481 -1.789136 -171.754828 63.162367 -159.607671 -9.210995 0.156134 -0.550651 -21.366739 10.756888 -45.485798 -2.638001 0.725169 25.393289 3.192831 15.094381 -9.894699 0.047700 -0.000000 -5.553100 11.146504 -2.939998 -3.010080 -3.232210 -16.909654 -8.760718 0.090563 -3.061326 42.648740 -0.546677 5.603013 21.425513 2.962300 -0.000000 -84.061300
1.270889 16.696157 -1.889372 -172.334132 62.318156 -160.147882 -9.201722 0.192684 -0.532448 -21.360677 9.989795 -44.679182 -2.581446 0.721896 25.771708 3.230856 15.199699 -10.416213 -0.122100 0.000000 -4.715800 11.217799 -2.759839 -3.089460 -3.371412 -16.687188 -9.964963 -0.110143 -3.200044 45.427194 -0.777344 3.633054 21.759853 2.147101 0.000000 -81.265699
1.370827 16.708762 -1.991209 -172.810989 61.430337 -160.590001 -9.202527 0.215458 -0.508510 -21.311994 9.200936 -43.779292 -2.526431 0.698825 25.983522 3.272115 15.311267 -10.965327 -0.302400 0.000000 -4.010500 11.265994 -2.578808 -3.175632 -3.404664 -16.407468 -11.166860 -0.294867 -3.337966 48.113274 -1.017160 1.367486 21.698317 1.145400 0.000000 -78.465300
1.467505 16.723672 -2.094532 -173.189444 60.515433 -160.936440 -9.213691 0.226323 -0.481385 -21.225936 8.416562 -42.812216 -2.474667 0.660377 26.045905 3.310498 15.407247 -11.511031 -0.484299 -0.000000 -3.434000 11.292989 -2.402421 -3.258383 -3.338610 -16.050801 -12.363192 -0.465049 -3.473737 50.667440 -1.261598 -1.057331 21.279814 0.055300 0.000001 -75.812101
1.561593 16.741183 -2.199203 -173.478415 59.587068 -161.193770 -9.235171 0.227614 -0.453523 -21.108300 7.659867 -41.804062 -2.427556 0.610943 25.978723 3.340495 15.467806 -12.026139 -0.658500 -0.000000 -2.980600 11.301049 -2.235161 -3.327737 -3.183713 -15.599168 -13.551144 -0.621800 -3.604980 53.055138 -1.503632 -3.491545 20.564244 -1.020300 0.000000 -73.378800
1.653727 16.761472 -2.304913 -173.689975 58.655408 -161.371318 -9.266638 0.221934 -0.427101 -20.964811 6.949552 -40.777637 -2.386159 0.554464 25.801941 3.357639 15.476948 -12.488867 -0.816800 -0.000000 -2.642100 11.292542 -2.080154 -3.374965 -2.953063 -15.039153 -14.727100 -0.765807 -3.728467 55.245324 -1.734380 -5.792635 19.632640 -1.992600 -0.000000 -71.259100
1.744444 16.784601 -2.411369 -173.837480 57.725299 -161.480253 -9.307496 0.212033 -0.403341 -20.800046 6.297395 -39.750539 -2.351066 0.494222 25.534293 3.358706 15.423140 -12.883389 -0.952401 0.000000 -2.409100 11.269867 -1.939215 -3.394020 -2.662169 -14.366419 -15.887678 -0.897262 -3.841213 57.216988 -1.942839 -7.834046 18.564906 -2.795600 -0.000000 -69.435400
1.834175 16.810377 -2.518175 -173.935048 56.797237 -161.533132 -9.356724 0.200236 -0.383121 -20.618599 5.708477 -38.734642 -2.322481 0.432711 25.193264 3.342018 15.300023 -13.202431 -1.061400 0.000001 -2.266600 11.235189 -1.812324 -3.381206 -2.328316 -13.583001 -17.027439 -1.015987 -3.939943 58.951080 -2.119637 -9.527491 17.457221 -3.398300 0.000000 -68.046300
1.923286 16.838489 -2.625039 -173.996285 55.867296 -161.543582 -9.413303 0.188906 -0.365533 -20.423107 5.179231 -37.733492 -2.300061 0.371466 24.790887 3.307395 15.107217 -13.443551 -1.141900 0.000000 -2.201200 11.190428 -1.698789 -3.337033 -1.969553 -12.703776 -18.142218 -1.121468 -4.023339 60.445738 -2.254316 -10.804692 16.362051 -3.787800 0.000000 -66.876100
2.011966 16.868388 -2.731735 -174.033839 54.928331 -161.524020 -9.475953 0.179337 -0.349655 -20.216178 4.699702 -36.745503 -2.283053 0.311254 24.337239 3.256021 14.848927 -13.611488 -1.195199 0.000000 -2.195300 11.136836 -1.595890 -3.263598 -1.602733 -11.745954 -19.225687 -1.212911 -4.089339 61.691782 -2.343399 -11.655352 15.358230 -3.986800 0.000001 -66.189500
2.100292 16.899517 -2.838129 -174.058120 53.971331 -161.487069 -9.543663 0.172741 -0.332771 -19.998207 4.253714 -35.762053 -2.270190 0.252018 23.836051 3.190259 14.534617 -13.713518 -1.224100 0.000000 -2.232700 11.075479 -1.501459 -3.166980 -1.242961 -10.738492 -20.274701 -1.289553 -4.138833 62.701136 -2.383140 -12.079298 14.452738 -4.015201 -0.000000 -65.639200
2.188324 16.931177 -2.944130 -174.080211 52.987602 -161.444718 -9.615221 0.169273 -0.312482 -19.769849 3.821621 -34.772992 -2.260040 0.193339 23.290106 3.113256 14.176518 -13.760860 -1.233100 0.000000 -2.297400 11.006813 -1.411835 -3.053419 -0.901698 -9.707482 -21.286120 -1.350808 -4.171932 63.477918 -2.378002 -12.129404 13.674086 -3.914800 -0.000000 -65.345701
2.275919 16.962699 -3.049875 -174.104093 51.968401 -161.403190 -9.689986 0.168587 -0.285564 -19.530103 3.382468 -33.767273 -2.250767 0.134413 22.699353 3.028545 13.788712 -13.765242 -1.226900 -0.000000 -2.374900 10.930798 -1.324180 -2.930322 -0.586073 -8.681581 -22.260208 -1.396337 -4.190196 64.036587 -2.334618 -11.874087 13.008470 -3.721600 0.000000 -65.133400
2.362896 16.993466 -3.155561 -174.132889 50.907711 -161.366961 -9.767449 0.169731 -0.249127 -19.277821 2.916603 -32.735833 -2.240584 0.074424 22.063606 2.939693 13.385525 -13.738720 -1.210300 0.000000 -2.453500 10.846980 -1.235656 -2.804327 -0.298867 -7.684725 -23.199592 -1.426250 -4.195169 64.391584 -2.263627 -11.405668 12.436240 -3.474400 0.000000 -64.912101
2.449237 17.023076 -3.261349 -174.171537 49.804075 -161.339518 -9.846644 0.171891 -0.199597 -19.013233 2.406021 -31.673626 -2.227954 0.012351 21.380999 2.850383 12.982529 -13.690899 -1.187400 0.000000 -2.523200 10.755177 -1.144009 -2.679435 -0.040499 -6.733335 -24.111687 -1.441275 -4.188466 64.560001 -2.177393 -10.825696 11.926422 -3.208200 0.000000 -64.532600
2.534497 17.050953 -3.367460 -174.210678 48.651875 -161.317533 -9.929213 0.172632 -0.138486 -18.729857 1.846865 -30.579546 -2.211582 -0.050701 20.664303 2.761274 12.580225 -13.634727 -1.162100 -0.000000 -2.584200 10.653102 -1.047822 -2.562314 0.197603 -5.843167 -24.991618 -1.441910 -4.170897 64.548711 -2.089336 -10.240868 11.460217 -2.958100 0.000000 -64.181901
2.618874 17.077060 -3.474130 -174.255942 47.459006 -161.299628 -10.013326 0.171646 -0.062039 -18.432436 1.228295 -29.459398 -2.190717 -0.115867 19.910741 2.675699 12.193720 -13.573782 -1.136300 0.000000 -2.630801 10.541138 -0.946182 -2.450609 0.415272 -5.012030 -25.854498 -1.429722 -4.143606 64.373861 -2.011211 -9.743142 11.004277 -2.748900 0.000000 -63.699000
2.702201 17.101275 -3.581513 -174.300783 46.228635 -161.281658 -10.099624 0.167661 0.028261 -18.119319 0.555254 -28.320754 -2.165056 -0.182086 19.132069 2.593705 11.822016 -13.514031 -1.111300 -0.000001 -2.667700 10.418130 -0.839492 -2.344758 0.618501 -4.238853 -26.700130 -1.405691 -4.107162 64.041722 -1.952522 -9.405893 10.534910 -2.599001 -0.000000 -63.141600
